<?xml version="1.0" standalone="no"?>
<!DOCTYPE svg PUBLIC "-//W3C//DTD SVG 20010904//EN"
 "http://www.w3.org/TR/2001/REC-SVG-20010904/DTD/svg10.dtd">
<svg version="1.0" xmlns="http://www.w3.org/2000/svg"
 width="512.000000pt" height="512.000000pt" viewBox="0 0 512.000000 512.000000"
 preserveAspectRatio="xMidYMid meet">
<metadata>
Created by potrace 1.11, written by Peter Selinger 2001-2013
</metadata>
<g transform="translate(0.000000,512.000000) scale(0.100000,-0.100000)"
fill="#000000" stroke="none">
<path d="M2530 4712 c-19 -31 -112 -190 -207 -352 -95 -162 -176 -299 -180
-305 -4 -5 -21 -35 -37 -65 -17 -30 -44 -77 -61 -105 -17 -27 -37 -63 -45 -80
-8 -16 -18 -32 -21 -35 -3 -3 -36 -59 -74 -125 -38 -66 -77 -132 -87 -146 -9
-14 -15 -29 -11 -32 3 -4 -2 -9 -11 -13 -9 -3 -16 -11 -16 -17 0 -6 -18 -40
-39 -76 -111 -188 -155 -267 -153 -274 1 -4 -5 -10 -13 -13 -8 -4 -15 -11 -15
-16 0 -6 -29 -60 -65 -120 -36 -61 -65 -112 -65 -115 0 -3 -9 -17 -20 -33 -11
-15 -17 -30 -13 -34 3 -3 2 -6 -3 -6 -5 0 -23 -26 -39 -57 -17 -32 -33 -60
-36 -63 -3 -3 -14 -21 -25 -40 -10 -19 -23 -38 -29 -42 -5 -4 -6 -8 -1 -8 5 0
-1 -12 -15 -27 -13 -14 -17 -23 -9 -19 13 7 13 6 0 -6 -8 -7 -24 -31 -35 -53
-11 -22 -22 -42 -26 -45 -3 -3 -23 -36 -44 -75 -21 -38 -43 -73 -49 -77 -6 -4
-8 -8 -3 -8 8 0 -19 -46 -40 -68 -7 -8 -11 -18 -8 -23 4 -5 2 -9 -2 -9 -5 0
-13 -9 -18 -20 -45 -89 -58 -110 -66 -110 -6 0 -8 -4 -5 -9 3 -4 -3 -19 -14
-31 -11 -12 -17 -27 -14 -31 3 -5 1 -9 -3 -9 -5 0 -17 -17 -28 -37 -10 -21
-28 -50 -38 -65 -10 -16 -15 -28 -10 -28 4 0 0 -5 -9 -11 -10 -5 -18 -15 -18
-20 0 -14 -81 -152 -95 -161 -5 -4 -6 -8 -1 -8 5 0 4 -6 -2 -12 -18 -23 -122
-208 -122 -218 0 -5 -3 -10 -8 -10 -4 0 -18 -21 -32 -47 -21 -41 -78 -141
-110 -193 -41 -68 -100 -174 -100 -180 0 -5 -3 -10 -7 -12 -5 -2 -16 -19 -27
-38 -10 -19 -81 -143 -157 -275 -75 -132 -135 -243 -133 -247 6 -10 5065 -10
5081 0 8 5 -29 78 -122 240 -73 128 -136 238 -139 245 -4 6 -12 21 -19 32 -14
23 -135 233 -167 290 -13 22 -31 54 -41 70 -11 17 -24 41 -31 55 -7 14 -34 60
-60 103 -27 43 -48 80 -48 82 0 2 -19 36 -43 77 -48 81 -85 145 -113 198 -11
19 -21 37 -24 40 -10 9 -100 172 -100 181 0 5 -4 9 -10 9 -5 0 -10 5 -10 11 0
6 -9 24 -21 40 -11 16 -17 29 -12 29 4 0 3 4 -3 8 -12 8 -45 68 -43 78 0 4 -3
10 -8 13 -11 8 -47 64 -48 73 0 4 -8 16 -17 28 -10 11 -15 20 -11 20 3 0 -1 8
-9 18 -8 9 -18 24 -21 32 -4 8 -20 38 -37 65 -16 28 -35 61 -42 75 -7 14 -15
27 -19 30 -3 3 -21 34 -40 70 -19 36 -37 67 -41 68 -5 2 -8 10 -8 18 0 8 -5
14 -11 14 -5 0 -8 4 -4 9 3 5 1 12 -4 16 -5 3 -16 18 -24 33 -18 36 -41 76
-47 82 -3 3 -12 19 -20 35 -8 17 -17 32 -20 35 -6 6 -49 84 -64 117 -6 13 -14
23 -18 23 -5 0 -8 7 -8 15 0 8 -5 15 -11 15 -5 0 -7 5 -4 10 3 6 1 10 -4 10
-6 0 -11 5 -11 10 0 10 -88 169 -100 180 -3 3 -10 14 -16 25 -6 11 -24 43 -39
70 -16 28 -36 64 -45 80 -9 17 -28 49 -43 72 -15 24 -27 47 -27 53 0 5 -5 10
-11 10 -5 0 -8 4 -4 9 3 5 1 12 -4 16 -5 3 -16 18 -24 33 -30 58 -60 107 -69
113 -5 3 -8 8 -7 10 4 5 -99 188 -119 212 -8 9 -12 17 -8 17 4 0 -1 12 -12 28
-11 15 -28 43 -39 62 -44 79 -386 666 -397 682 -11 15 -16 10 -46 -40z m160
-1284 c55 -95 104 -180 110 -188 5 -8 22 -37 38 -65 16 -27 39 -68 52 -90 12
-22 34 -60 48 -85 13 -25 30 -52 38 -60 7 -8 13 -18 13 -23 0 -4 7 -17 15 -30
7 -12 40 -67 71 -122 32 -55 68 -118 82 -140 13 -22 29 -52 36 -67 6 -16 15
-28 19 -28 4 0 8 -4 8 -9 0 -5 20 -44 45 -85 25 -42 45 -81 45 -86 0 -6 4 -10
9 -10 5 0 13 -10 17 -22 4 -13 19 -41 34 -63 15 -22 27 -43 26 -47 0 -4 7 -16
16 -28 10 -11 15 -20 11 -20 -3 0 1 -8 10 -18 8 -9 20 -28 26 -42 6 -14 22
-43 36 -65 14 -22 35 -58 46 -80 12 -22 27 -43 33 -47 6 -4 7 -8 3 -8 -5 0 0
-12 11 -27 10 -16 43 -71 72 -123 30 -52 57 -96 62 -98 4 -2 8 -12 8 -23 0
-10 3 -19 8 -19 4 0 13 -13 20 -30 7 -16 24 -45 37 -65 14 -19 22 -35 19 -35
-2 0 4 -10 16 -22 11 -12 20 -27 20 -34 0 -7 7 -20 16 -28 8 -9 13 -16 10 -16
-3 0 8 -21 24 -47 17 -26 30 -54 30 -62 0 -8 3 -11 7 -8 5 6 43 -57 75 -125 7
-16 16 -28 21 -28 4 0 5 -4 2 -10 -3 -5 -2 -10 3 -10 6 0 15 -12 21 -27 12
-30 41 -80 73 -125 l19 -28 -68 -1 c-131 -2 -1488 -9 -1518 -8 -141 5 -192 4
-202 -4 -7 -5 -13 -6 -13 -1 0 5 -288 9 -653 9 -358 0 -669 2 -690 4 -35 3
-37 4 -23 20 9 10 16 23 16 29 0 7 5 12 11 12 5 0 8 4 5 9 -4 5 -2 11 2 13 8
3 52 75 76 125 6 13 15 23 19 23 5 0 5 5 2 10 -3 5 -1 10 5 10 6 0 8 4 5 10
-3 6 -1 10 4 10 6 0 11 7 11 15 0 8 4 15 8 15 5 0 14 16 22 35 8 19 18 35 24
35 5 0 6 3 3 6 -4 4 7 25 23 47 17 23 30 45 30 50 0 5 14 29 30 54 17 24 30
48 30 52 0 5 9 20 21 35 11 14 17 26 13 26 -4 0 0 8 8 18 8 9 30 44 49 77 19
33 39 68 44 77 82 142 163 284 188 328 17 30 33 57 36 60 3 3 13 19 21 35 8
17 17 32 20 35 9 9 51 84 63 113 6 15 15 27 19 27 4 0 8 7 8 15 0 8 4 15 10
15 5 0 9 3 8 8 -2 6 47 94 161 287 26 44 51 87 54 95 4 8 19 33 32 55 14 22
28 48 32 58 3 9 10 17 15 17 5 0 6 5 3 10 -3 6 -2 10 3 10 5 0 12 8 16 18 3 9
10 24 16 32 9 13 73 123 120 205 87 152 195 331 202 333 4 2 8 8 8 14 0 5 19
41 42 78 38 62 44 66 55 50 7 -10 58 -96 113 -192z"/>
</g>
</svg>
